<?xml version="1.0" encoding="UTF-8"?>
<svg width="64" height="64" viewBox="0 0 504 504" xmlns="http://www.w3.org/2000/svg">
 <path d="m186 471.3c-29.179-1.5293-57.034-8.4985-78.346-19.601-10.415-5.4261-13.654-8.3874-13.654-12.482 0-1.3811 4.2714-12.318 9.4921-24.304l9.4921-21.793-8.9235-20.483-8.9235-20.483-18.239-22.328c-10.031-12.281-18.697-22.927-19.257-23.658s-5.7748-39.345-11.588-85.807l-10.57-84.478-6.6124-2.2253c-8.0799-2.7192-13.149-6.4553-17.017-12.541-6.8262-10.742-7.4798-22.344-1.8978-33.683 5.7158-11.61 16.184-17.819 30.043-17.819s24.327 6.2086 30.043 17.819c6.6246 13.457 4.6681 25.645-6.433 40.074-0.57741 0.75052 9.2491 21.998 27.992 60.526l28.882 59.37 4.1912-72.953c2.3051-40.124 4.2212-74.407 4.2579-76.183 0.05687-2.7502-0.48993-3.5166-3.6832-5.1627-6.7324-3.4704-12.027-8.9088-15.458-15.879-8.4036-17.07-1.0212-36.417 17.208-45.097 7.786-3.7073 18.214-3.7073 26 0 8.1508 3.881 13.45 9.0046 17.208 16.639 2.8406 5.77 3.292 7.7212 3.292 14.229s-0.45141 8.459-3.292 14.229c-1.9344 3.9294-4.9567 8.1119-7.3289 10.142l-4.0369 3.4554 24.829 72.071c13.656 39.639 25.074 72.078 25.373 72.087s6.8534-36.316 14.564-80.721l14.02-80.737-4.2925-2.8432c-9.5656-6.336-14.819-16.151-14.829-27.704-0.01173-13.445 7.4111-24.618 20.493-30.847 7.786-3.7073 18.214-3.7073 26 0 8.1508 3.881 13.45 9.0046 17.208 16.639 2.8414 5.7718 3.2911 7.7164 3.2854 14.208-0.01007 11.554-5.2636 21.368-14.829 27.704l-4.2925 2.8432 14.02 80.737c7.7108 44.405 14.265 80.73 14.564 80.721s11.718-32.447 25.373-72.087l24.829-72.071-4.0369-3.4554c-2.3722-2.0305-5.3944-6.213-7.3289-10.142-8.4036-17.07-1.0212-36.417 17.208-45.097 7.786-3.7073 18.214-3.7073 26 0 8.1508 3.881 13.45 9.0046 17.208 16.639 2.8406 5.77 3.292 7.7212 3.292 14.229s-0.45141 8.459-3.292 14.229c-3.4312 6.9698-8.7256 12.408-15.458 15.879-3.1933 1.646-3.7401 2.4125-3.6832 5.1627 0.03672 1.7763 1.9528 36.059 4.2579 76.183l4.1912 72.953 28.882-59.37c18.743-38.528 28.569-59.776 27.992-60.526-11.101-14.429-13.058-26.617-6.433-40.074 5.7158-11.61 16.184-17.819 30.043-17.819s24.327 6.2086 30.043 17.819c5.582 11.339 4.9283 22.94-1.8978 33.683-3.8672 6.0859-8.9368 9.8221-17.017 12.541l-6.6124 2.2253-10.57 84.478c-5.8132 46.463-11.028 85.076-11.588 85.807s-9.226 11.377-19.257 23.658l-18.239 22.328-8.9235 20.483-8.9235 20.483 9.4921 21.793c5.2207 11.986 9.4921 22.923 9.4921 24.304 0 4.0951-3.2393 7.0564-13.654 12.482-16.514 8.6037-36.606 14.695-59.288 17.975-8.5164 1.2314-23.606 1.564-78.057 1.7208-37.125 0.10685-69.975 0.06454-73-0.094zm151-19.62c13.855-2.006 22.504-4.0225 33.865-7.8955l9.3651-3.1927-6.8651-2.326c-18.923-6.4114-54.549-13.603-81.365-16.425-16.286-1.7136-63.714-1.7136-80 0-26.816 2.8216-62.442 10.013-81.365 16.425l-6.8651 2.326 9.3651 3.2098c15.148 5.1917 33.458 8.4817 52.865 9.4989 3.025 0.15854 35.875 0.20085 73 0.094 54.334-0.15636 69.548-0.49078 78-1.7145zm-185.5-37.196c35.962-8.8802 61.829-11.958 100.5-11.958 29.06 0 42.579 1.0158 67.5 5.0719 16.288 2.651 46.659 9.8493 58.25 13.806 3.9875 1.3611 7.25 2.2933 7.25 2.0714s-2.1914-5.4826-4.8697-11.69c-4.5867-10.631-5.1244-11.415-9.25-13.488-8.2675-4.1539-37.838-13.297-52.605-16.265-27.048-5.4368-37.408-6.444-66.275-6.444s-39.227 1.0072-66.275 6.444c-14.767 2.9682-44.337 12.111-52.605 16.265-4.1256 2.0729-4.6633 2.857-9.25 13.488-2.6784 6.2079-4.8697 11.469-4.8697 11.69s3.2625-0.71025 7.25-2.0714 15.35-4.475 25.25-6.9196zm-0.30052-41.325c66.181-21.421 135.42-21.421 201.6 0 8.4153 2.7238 17.267 5.7953 19.67 6.8254 3.166 1.3571 4.5066 1.5479 4.8678 0.69281 0.27419-0.64906 3.177-7.31 6.4506-14.802l5.9521-13.622-3.6205-1.158c-29.278-9.3648-51.793-14.663-76.62-18.029-65.84-8.9265-124.65-3.3938-191.62 18.029l-3.6205 1.158 5.9521 13.622c3.2737 7.4921 6.1765 14.153 6.4506 14.802 0.36123 0.85511 1.7018 0.66431 4.8678-0.69281 2.4031-1.0301 11.255-4.1015 19.67-6.8254zm-38.125-38.716c90.159-31.009 187.7-31.007 277.87 0.0063 4.094 1.408 7.7647 2.2198 8.157 1.8038 2.4263-2.5726 26.85-32.848 26.829-33.256-0.01448-0.275-3.2262-3.0081-7.1371-6.0736l-7.1108-5.5736-5.5908 0.91887c-17.341 2.8502-42.847-2.7501-61.382-13.478l-6.7914-3.9306-7.7086 2.53c-25.172 8.2617-50.439 4.7571-72.959-10.12l-5.25-3.4682-5.25 3.4682c-12.753 8.4245-27.442 13.427-42.299 14.406-10.355 0.68196-19.357-0.57645-30.659-4.286l-7.7086-2.53-6.7914 3.9306c-18.535 10.728-44.041 16.328-61.382 13.478l-5.5908-0.91887-7.107 5.5736c-3.9089 3.0655-7.018 5.8919-6.9092 6.2809 0.17058 0.61001 26.908 33.793 27.229 33.793 0.06507 0 3.4596-1.1492 7.5435-2.5538zm-26.525-60.268c1.9861-1.0412 3.9855-1.0942 9.4269-0.25 9.7051 1.5058 18.373 1.4186 17.746-0.17847-1.4883-3.7924-57.124-117.68-57.369-117.44-0.1611 0.1611 3.2878 28.844 7.6641 63.74s7.9624 63.815 7.9691 64.264 2.7187-1.351 6.0267-4 7.149-5.411 8.5354-6.1379zm353.39-53.678c4.4003-35.143 7.8688-64.028 7.7078-64.189-0.25193-0.25193-55.916 113.73-57.431 117.6-0.46628 1.1912 1.073 1.2843 9.8664 0.59695 17.731-1.386 16.73-1.5786 24.47 4.7073 3.8141 3.0974 7.0361 5.5302 7.16 5.4062s3.8256-28.978 8.2259-64.121zm-294.66 45.879c3.9738-1.9912 9.3754-5.189 12.004-7.1061 5.6083-4.0909 6.8724-4.0529 19.749 0.59391 9.8087 3.5396 23.652 5.3871 22.792 3.0418-0.28415-0.77507-12.397-35.898-26.918-78.051-15.314-44.457-26.507-75.533-26.654-74-0.13869 1.4532-2.0368 34.817-4.2181 74.142s-4.2325 74.538-4.5584 78.25-0.32898 6.75-0.00695 6.75 3.8368-1.6292 7.8106-3.6205zm221.25-3.1295c-0.32585-3.7125-2.3771-38.925-4.5584-78.25s-4.0794-72.689-4.2181-74.142c-0.14627-1.5326-11.339 29.543-26.654 74-14.521 42.153-26.634 77.276-26.918 78.051-0.85979 2.3452 12.983 0.49773 22.792-3.0418 12.509-4.5141 14.338-4.6336 18.783-1.228 3.712 2.844 19.007 11.276 20.556 11.331 0.44581 0.01606 0.54395-3.0083 0.21809-6.7208zm-135.61-6.8407c3.6207-1.9749 8.608-5.2773 11.083-7.3386 8.9658-7.4673 11.334-7.5581 19.135-0.73408 4.4496 3.8924 18.591 12.333 19.296 11.518 0.47198-0.54626-27.864-162.85-28.431-162.85-0.275-2.7e-4 -6.7535 36.11-14.397 80.246s-14.104 80.809-14.357 81.497c-0.70958 1.9268 0.55311 1.5415 7.6706-2.3407zm-182.94-140.16c5.1751-2.6001 8.0199-7.4769 8.0199-13.748 0-9.2271-6.4733-15.497-16-15.497s-16 6.2698-16 15.497 6.4733 15.497 16 15.497c2.475 0 6.066-0.7868 7.9801-1.7484zm424 0c5.1751-2.6001 8.0199-7.4769 8.0199-13.748 0-9.2271-6.4733-15.497-16-15.497s-16 6.2698-16 15.497 6.4733 15.497 16 15.497c2.475 0 6.066-0.7868 7.9801-1.7484zm-323.9-39.522c10.64-7.1703 10.64-20.282 0-27.452-9.8128-6.6128-24.078 1.5195-24.078 13.726s14.266 20.339 24.078 13.726zm224 0c10.64-7.1703 10.64-20.282 0-27.452-9.8128-6.6128-24.078 1.5195-24.078 13.726s14.266 20.339 24.078 13.726zm-112-20c10.64-7.1703 10.64-20.282 0-27.452-9.8128-6.6128-24.078 1.5195-24.078 13.726s14.266 20.339 24.078 13.726z"/>
</svg>
