<?xml version="1.0" encoding="UTF-8"?>
<svg viewBox="0 0 504 504" xmlns="http://www.w3.org/2000/svg">
 <path d="m180.92 473.61c-20.704-1.4518-39.947-5.4725-55.389-11.573-9.3419-3.6907-21.004-9.6998-22.022-11.347-0.32008-0.51789 3.7101-10.81 8.956-22.871s9.538-22.454 9.538-23.096c0-1.2552-15.852-37.931-18.985-43.924-1.0403-1.99-9.9757-13.464-19.857-25.498l-17.965-21.88-1.1844-9.6197c-0.6514-5.2908-5.5447-44.494-10.874-87.119l-9.6898-77.499-5.6962-0.71151c-16.445-2.0542-26.267-16.68-21.282-31.69 2.1189-6.3795 5.3581-10.324 11.389-13.869 3.9436-2.3183 5.7766-2.7304 12.145-2.7304s8.201 0.41209 12.145 2.7304c6.0304 3.545 9.2696 7.4898 11.389 13.869 3.6183 10.894-1.0931 23.078-11.086 28.67-1.1559 0.64685 6.2417 16.632 36.684 79.27 20.972 43.153 38.192 78.542 38.266 78.642 0.20523 0.27776 10.702-187.8 10.649-190.81-0.03926-2.2533-0.66355-2.7868-4.3463-3.7142-5.9706-1.5034-12.049-6.1906-15.383-11.862-2.4198-4.1166-2.8169-5.8604-2.8169-12.371 0-6.6868 0.35637-8.1574 3.0291-12.5 10.049-16.328 32.892-16.328 42.942 0 2.6799 4.3542 3.0291 5.8043 3.0291 12.578 0 6.7642-0.35188 8.2306-3.0183 12.578-1.8014 2.9374-5.0503 6.2632-8.0585 8.2493l-5.0402 3.3278 31.555 91.422c17.355 50.282 31.782 91.422 32.058 91.422 0.34706-4.1e-4 33.135-186.56 35.38-201.31 0.0677-0.44466-1.5653-1.4044-3.629-2.1329-5.5165-1.9472-10.339-6.0061-13.476-11.343-2.371-4.0334-2.7723-5.8132-2.7723-12.295 0-6.6868 0.35637-8.1574 3.0291-12.5 10.049-16.328 32.892-16.328 42.942 0 2.6728 4.3426 3.0291 5.8132 3.0291 12.5 0 6.4814-0.40132 8.2611-2.7723 12.295-3.1369 5.3364-7.9592 9.3954-13.476 11.343-2.0636 0.72841-3.6966 1.6882-3.629 2.1329 2.2456 14.752 35.033 201.31 35.38 201.31 0.27695 3.5e-4 14.703-41.139 32.058-91.422l31.555-91.422-5.0402-3.3278c-3.0082-1.9861-6.257-5.312-8.0585-8.2493-2.6664-4.3478-3.0183-5.8142-3.0183-12.578 0-6.7741 0.34921-8.2242 3.0291-12.578 10.049-16.328 32.892-16.328 42.942 0 2.6728 4.3426 3.0291 5.8132 3.0291 12.5 0 6.5102-0.39707 8.2539-2.8169 12.371-3.3339 5.6718-9.412 10.359-15.383 11.862-3.6828 0.92733-4.3071 1.4608-4.3463 3.7142-0.0525 3.0142 10.444 191.09 10.649 190.81 0.07415-0.10036 17.294-35.489 38.266-78.642 30.442-62.638 37.84-78.623 36.684-79.27-9.9934-5.5926-14.705-17.776-11.086-28.67 2.1189-6.3795 5.3581-10.324 11.389-13.869 3.9436-2.3183 5.7766-2.7304 12.145-2.7304s8.201 0.41209 12.145 2.7304c6.0304 3.545 9.2696 7.4898 11.389 13.869 4.9855 15.01-4.8366 29.636-21.282 31.69l-5.6962 0.71152-9.6898 77.499c-5.3294 42.625-10.223 81.828-10.874 87.119l-1.1844 9.6197-17.965 21.88c-9.8808 12.034-18.816 23.508-19.857 25.498-3.1331 5.9937-18.985 42.669-18.985 43.924 0 0.64189 4.2921 11.035 9.538 23.096s9.2761 22.353 8.956 22.871c-2.2943 3.7123-26.341 13.787-41.798 17.512-22.395 5.3969-26.874 5.6626-99.696 5.9156-37.125 0.12898-72.262-0.09945-78.083-0.50759l1e-5 1e-5z"/>
 <path d="m130.5 361.67c17.292-6.4803 34.436-11.385 52.496-15.019 26.366-5.3046 37.84-6.3626 69-6.3626s42.634 1.0581 69 6.3626c18.15 3.6517 35.216 8.5426 52.8 15.132 14.961 5.6068 17.332 5.6883 20.136 0.69232 2.3123-4.1196 0.55178-7.8145-5.048-10.594-8.2823-4.1117-32.455-12.058-49.094-16.138-32.985-8.0893-53.464-10.55-87.794-10.55-15.572 0-30.83 0.53271-37 1.2918-34.444 4.2377-64.524 11.496-92.743 22.379-10.479 4.0414-13.257 6.257-13.257 10.575 0 2.6663 4.1247 7.232 6.5334 7.232 0.89339-1e-5 7.63-2.2506 14.97-5.0014v1e-5z" fill="#fff"/>
 <path d="m154 404.88c19.95-8.5891 40.608-14.453 62.998-17.884 16.035-2.4567 53.869-2.4651 70-0.0156 23.338 3.544 45.841 10.181 68.409 20.175 10.274 4.5499 12.345 5.1522 14.79 4.2999 5.5059-1.9194 6.4967-8.1759 1.9065-12.038-6.9191-5.822-40.52-18.319-62.106-23.097-22.624-5.0089-32.888-6.0859-58-6.0859s-35.376 1.077-58 6.0859c-21.585 4.779-55.187 17.275-62.106 23.097-4.5206 3.8038-3.7887 9.5576 1.4984 11.781 2.5506 1.0724 3.621 1.0667 6.1003-0.03287 1.6538-0.73345 8.1831-3.562 14.509-6.2856h1e-5z" fill="#fff"/>
 <path d="m121.8 456.29c5.1927-2.6739 34.808-12.371 47.2-15.455 14.118-3.5135 30.303-6.4113 46.5-8.3256 14.351-1.696 58.649-1.6961 73 0 31.859 3.7652 61.028 10.942 88.71 21.827l8.7103 3.425 4.0884-2.0858c4.5686-2.3307 5.4961-3.8468 4.5819-7.4894-0.81496-3.2471-6.1767-5.922-24.591-12.268-78.197-26.949-157.8-26.949-236 0-18.414 6.3462-23.776 9.021-24.591 12.268-0.89998 3.5858-0.00182 5.1349 4.2904 7.4 4.6101 2.4329 4.7227 2.4426 8.1002 0.70351v1e-5z" fill="#fff"/>
</svg>
